<svg xmlns="http://www.w3.org/2000/svg" viewBox="0 0 1500 1000" fill="none">
  <defs>
    <linearGradient id="bg" x1="108" y1="42" x2="1419" y2="1028" gradientUnits="userSpaceOnUse">
      <stop stop-color="#101613"/>
      <stop offset="0.55" stop-color="#17231D"/>
      <stop offset="1" stop-color="#24342B"/>
    </linearGradient>
    <radialGradient id="glowA" cx="0" cy="0" r="1" gradientUnits="userSpaceOnUse" gradientTransform="translate(1206 173) rotate(129.398) scale(399.167 434.965)">
      <stop stop-color="#5AC6A0" stop-opacity=".54"/>
      <stop offset="1" stop-color="#5AC6A0" stop-opacity="0"/>
    </radialGradient>
    <radialGradient id="glowB" cx="0" cy="0" r="1" gradientUnits="userSpaceOnUse" gradientTransform="translate(266 774) rotate(-18.138) scale(461.857 385.788)">
      <stop stop-color="#97B5FF" stop-opacity=".24"/>
      <stop offset="1" stop-color="#97B5FF" stop-opacity="0"/>
    </radialGradient>
    <filter id="blur64" x="-94" y="-219" width="1703" height="1451" filterUnits="userSpaceOnUse" color-interpolation-filters="sRGB">
      <feFlood flood-opacity="0" result="BackgroundImageFix"/>
      <feGaussianBlur stdDeviation="70"/>
      <feBlend mode="normal" in="SourceGraphic" in2="BackgroundImageFix" result="shape"/>
    </filter>
  </defs>

  <rect width="1500" height="1000" fill="url(#bg)"/>
  <g filter="url(#blur64)">
    <circle cx="1202" cy="185" r="236" fill="url(#glowA)"/>
    <circle cx="287" cy="769" r="228" fill="url(#glowB)"/>
  </g>

  <g opacity=".22">
    <path d="M88 185C241 136 398 140 540 196" stroke="#F5F1E8" stroke-width="2"/>
    <path d="M111 275C276 232 472 240 635 329" stroke="#F5F1E8" stroke-width="2"/>
    <path d="M120 370C294 341 482 385 610 497" stroke="#F5F1E8" stroke-width="2"/>
    <path d="M883 778C1005 713 1149 707 1290 747" stroke="#F5F1E8" stroke-width="2"/>
  </g>

  <g opacity=".18">
    <circle cx="184" cy="148" r="6" fill="#F5F1E8"/>
    <circle cx="250" cy="118" r="4" fill="#F5F1E8"/>
    <circle cx="1210" cy="784" r="5" fill="#F5F1E8"/>
    <circle cx="1278" cy="816" r="3" fill="#F5F1E8"/>
  </g>
</svg>
