<svg xmlns="http://www.w3.org/2000/svg" viewBox="0 0 1500 1000" fill="none">
  <defs>
    <linearGradient id="bg" x1="108" y1="42" x2="1419" y2="1028" gradientUnits="userSpaceOnUse">
      <stop stop-color="#101613"/>
      <stop offset="0.55" stop-color="#17231D"/>
      <stop offset="1" stop-color="#24342B"/>
    </linearGradient>
    <radialGradient id="glowA" cx="0" cy="0" r="1" gradientUnits="userSpaceOnUse" gradientTransform="translate(1206 173) rotate(129.398) scale(399.167 434.965)">
      <stop stop-color="#5AC6A0" stop-opacity=".54"/>
      <stop offset="1" stop-color="#5AC6A0" stop-opacity="0"/>
    </radialGradient>
    <radialGradient id="glowB" cx="0" cy="0" r="1" gradientUnits="userSpaceOnUse" gradientTransform="translate(266 774) rotate(-18.138) scale(461.857 385.788)">
      <stop stop-color="#97B5FF" stop-opacity=".24"/>
      <stop offset="1" stop-color="#97B5FF" stop-opacity="0"/>
    </radialGradient>
    <filter id="blur64" x="-94" y="-219" width="1703" height="1451" filterUnits="userSpaceOnUse" color-interpolation-filters="sRGB">
      <feFlood flood-opacity="0" result="BackgroundImageFix"/>
      <feGaussianBlur stdDeviation="70"/>
      <feBlend mode="normal" in="SourceGraphic" in2="BackgroundImageFix" result="shape"/>
    </filter>
    <filter id="cardShadow" x="600" y="122" width="655" height="644" filterUnits="userSpaceOnUse" color-interpolation-filters="sRGB">
      <feFlood flood-opacity="0" result="BackgroundImageFix"/>
      <feColorMatrix in="SourceAlpha" type="matrix" values="0 0 0 0 0 0 0 0 0 0 0 0 0 0 0 0 0 0 127 0" result="hardAlpha"/>
      <feOffset dy="18"/>
      <feGaussianBlur stdDeviation="18"/>
      <feColorMatrix type="matrix" values="0 0 0 0 0.016 0 0 0 0 0.023 0 0 0 0 0.02 0 0 0 0.35 0"/>
      <feBlend mode="normal" in2="BackgroundImageFix" result="effect1_dropShadow_1_2"/>
      <feBlend mode="normal" in="SourceGraphic" in2="effect1_dropShadow_1_2" result="shape"/>
    </filter>
    <style>
      text {
        font-family: "Space Grotesk", "Helvetica Neue", Arial, sans-serif;
      }
    </style>
  </defs>

  <rect width="1500" height="1000" fill="url(#bg)"/>
  <g filter="url(#blur64)">
    <circle cx="1202" cy="185" r="236" fill="url(#glowA)"/>
    <circle cx="287" cy="769" r="228" fill="url(#glowB)"/>
  </g>

  <g opacity=".22">
    <path d="M88 185C241 136 398 140 540 196" stroke="#F5F1E8" stroke-width="2"/>
    <path d="M111 275C276 232 472 240 635 329" stroke="#F5F1E8" stroke-width="2"/>
    <path d="M120 370C294 341 482 385 610 497" stroke="#F5F1E8" stroke-width="2"/>
    <path d="M883 778C1005 713 1149 707 1290 747" stroke="#F5F1E8" stroke-width="2"/>
  </g>

  <g opacity=".18">
    <circle cx="184" cy="148" r="6" fill="#F5F1E8"/>
    <circle cx="250" cy="118" r="4" fill="#F5F1E8"/>
    <circle cx="1210" cy="784" r="5" fill="#F5F1E8"/>
    <circle cx="1278" cy="816" r="3" fill="#F5F1E8"/>
  </g>

  <g filter="url(#cardShadow)">
    <rect x="636" y="158" width="583" height="572" rx="42" fill="white" fill-opacity=".08" stroke="white" stroke-opacity=".12"/>
    <rect x="680" y="202" width="238" height="62" rx="31" fill="#F8F3EA" fill-opacity=".12"/>
    <text x="725" y="243" fill="#F8F3EA" font-size="24" font-weight="700" letter-spacing=".12em">AI INBOX</text>
    <text x="680" y="334" fill="#F8F3EA" font-size="62" font-weight="700" letter-spacing="-0.03em">Capture first.</text>
    <text x="680" y="404" fill="#F8F3EA" font-size="62" font-weight="700" letter-spacing="-0.03em">Let the result take shape.</text>
    <text x="680" y="488" fill="#F8F3EA" fill-opacity=".74" font-size="31" font-weight="500">Notes, voice, photos, links, and chats all</text>
    <text x="680" y="531" fill="#F8F3EA" fill-opacity=".74" font-size="31" font-weight="500">move through one flow toward clearer outputs.</text>

    <rect x="680" y="585" width="146" height="52" rx="26" fill="#5AC6A0" fill-opacity=".16" stroke="#5AC6A0" stroke-opacity=".25"/>
    <text x="719" y="618" fill="#8EE7C3" font-size="22" font-weight="700">Note</text>
    <rect x="842" y="585" width="158" height="52" rx="26" fill="#5AC6A0" fill-opacity=".16" stroke="#5AC6A0" stroke-opacity=".25"/>
    <text x="878" y="618" fill="#8EE7C3" font-size="22" font-weight="700">Record</text>
    <rect x="1016" y="585" width="146" height="52" rx="26" fill="#5AC6A0" fill-opacity=".16" stroke="#5AC6A0" stroke-opacity=".25"/>
    <text x="1053" y="618" fill="#8EE7C3" font-size="22" font-weight="700">Photo</text>
    <rect x="680" y="653" width="154" height="52" rx="26" fill="#97B5FF" fill-opacity=".13" stroke="#97B5FF" stroke-opacity=".2"/>
    <text x="722" y="686" fill="#BDD0FF" font-size="22" font-weight="700">Share</text>
    <rect x="850" y="653" width="140" height="52" rx="26" fill="#97B5FF" fill-opacity=".13" stroke="#97B5FF" stroke-opacity=".2"/>
    <text x="893" y="686" fill="#BDD0FF" font-size="22" font-weight="700">Chat</text>
    <rect x="1006" y="653" width="156" height="52" rx="26" fill="#97B5FF" fill-opacity=".13" stroke="#97B5FF" stroke-opacity=".2"/>
    <text x="1041" y="686" fill="#BDD0FF" font-size="22" font-weight="700">Topics</text>
  </g>
</svg>
