<svg xmlns="http://www.w3.org/2000/svg" viewBox="0 0 1320 2868" fill="none">
  <defs>
    <linearGradient id="bg" x1="0" y1="0" x2="1320" y2="2868" gradientUnits="userSpaceOnUse">
      <stop stop-color="#FBF7F0"/>
      <stop offset="1" stop-color="#F2EEE4"/>
    </linearGradient>
    <linearGradient id="bar" x1="147" y1="2516" x2="1174" y2="2516" gradientUnits="userSpaceOnUse">
      <stop stop-color="#FFFDF9"/>
      <stop offset="1" stop-color="#F6F2E8"/>
    </linearGradient>
    <filter id="shadow" x="70" y="179" width="1180" height="2574" filterUnits="userSpaceOnUse" color-interpolation-filters="sRGB">
      <feFlood flood-opacity="0" result="BackgroundImageFix"/>
      <feColorMatrix in="SourceAlpha" type="matrix" values="0 0 0 0 0 0 0 0 0 0 0 0 0 0 0 0 0 0 127 0" result="hardAlpha"/>
      <feOffset dy="28"/>
      <feGaussianBlur stdDeviation="26"/>
      <feColorMatrix type="matrix" values="0 0 0 0 0.075 0 0 0 0 0.102 0 0 0 0 0.091 0 0 0 0.12 0"/>
      <feBlend mode="normal" in2="BackgroundImageFix" result="effect1_dropShadow_1_2"/>
      <feBlend mode="normal" in="SourceGraphic" in2="effect1_dropShadow_1_2" result="shape"/>
    </filter>
    <filter id="soft" x="152" y="1651" width="1016" height="486" filterUnits="userSpaceOnUse" color-interpolation-filters="sRGB">
      <feFlood flood-opacity="0" result="BackgroundImageFix"/>
      <feGaussianBlur in="BackgroundImageFix" stdDeviation="20"/>
      <feComposite in2="SourceAlpha" operator="in" result="effect1_backgroundBlur_1_2"/>
      <feBlend mode="normal" in="SourceGraphic" in2="effect1_backgroundBlur_1_2" result="shape"/>
    </filter>
    <style>
      text {
        font-family: "SF Pro Display", "Helvetica Neue", Arial, sans-serif;
      }
      .eyebrow {
        font-size: 46px;
        font-weight: 700;
        letter-spacing: 0.18em;
        text-transform: uppercase;
        fill: #5B675E;
      }
      .title {
        font-size: 62px;
        font-weight: 700;
        letter-spacing: -0.03em;
        fill: #16201C;
      }
      .body {
        font-size: 37px;
        font-weight: 500;
        fill: #5D665F;
      }
      .label {
        font-size: 33px;
        font-weight: 700;
        fill: #2F6B60;
      }
      .small {
        font-size: 31px;
        font-weight: 600;
        fill: #6C746E;
      }
      .chip {
        font-size: 31px;
        font-weight: 700;
      }
    </style>
  </defs>

  <rect width="1320" height="2868" fill="url(#bg)"/>

  <g filter="url(#shadow)">
    <rect x="122" y="231" width="1076" height="2418" rx="84" fill="#F9F6EF"/>
  </g>

  <text x="140" y="154" class="small">9:41</text>
  <rect x="994" y="107" width="172" height="60" rx="30" fill="#0E1613"/>
  <circle cx="1041" cy="137" r="16" fill="#F8F4EB"/>
  <rect x="1124" y="119" width="22" height="36" rx="11" stroke="#F8F4EB" stroke-width="10"/>

  <rect x="177" y="332" width="966" height="116" rx="58" fill="#ECE9E0"/>
  <rect x="197" y="352" width="346" height="76" rx="38" fill="#FFFFFF"/>
  <text x="272" y="401" class="chip" fill="#16201C">Inbox</text>
  <text x="600" y="401" class="chip" fill="#7B847E">Topics</text>
  <circle cx="1010" cy="390" r="21" fill="#2F6B60" opacity=".14"/>
  <path d="M1000 390h20M1010 380v20" stroke="#2F6B60" stroke-width="6" stroke-linecap="round"/>

  <rect x="177" y="490" width="966" height="116" rx="32" fill="#ECE9E0"/>
  <circle cx="237" cy="548" r="18" stroke="#96A198" stroke-width="6"/>
  <path d="M250 560l23 23" stroke="#96A198" stroke-width="6" stroke-linecap="round"/>
  <text x="286" y="562" class="body" fill="#8A938D">Search notes, tags, or topics</text>

  <rect x="177" y="652" width="966" height="610" rx="42" fill="#FFFFFF"/>
  <rect x="219" y="694" width="164" height="58" rx="29" fill="#DDF0E8"/>
  <text x="261" y="733" class="chip" fill="#2F6B60">Meeting</text>
  <text x="219" y="827" class="title" style="font-size:56px">Weekly roadmap sync</text>
  <text x="219" y="895" class="body">AI Inbox pulled out the decisions, owner list,</text>
  <text x="219" y="946" class="body">and open questions from one recording.</text>

  <rect x="219" y="1002" width="882" height="1" fill="#E7E2D8"/>
  <text x="219" y="1077" class="label">What changed</text>
  <text x="219" y="1132" class="body">The launch now depends on the share-sheet flow</text>
  <text x="219" y="1183" class="body">and the Topics home redesign landing together.</text>

  <rect x="177" y="1304" width="966" height="296" rx="42" fill="#F1EEE6"/>
  <text x="219" y="1385" class="eyebrow">Suggested next steps</text>
  <rect x="219" y="1433" width="292" height="94" rx="28" fill="#FFFFFF"/>
  <text x="288" y="1491" class="chip" fill="#16201C">Continue chat</text>
  <rect x="531" y="1433" width="258" height="94" rx="28" fill="#FFFFFF"/>
  <text x="597" y="1491" class="chip" fill="#16201C">Draft email</text>
  <rect x="809" y="1433" width="292" height="94" rx="28" fill="#FFFFFF"/>
  <text x="862" y="1491" class="chip" fill="#16201C">Share image</text>

  <g filter="url(#soft)">
    <rect x="177" y="1676" width="966" height="436" rx="42" fill="white" fill-opacity=".78"/>
  </g>
  <rect x="219" y="1718" width="184" height="58" rx="29" fill="#E7EDF6"/>
  <text x="277" y="1757" class="chip" fill="#365F8A">Topic</text>
  <text x="219" y="1847" class="title" style="font-size:54px">AnyNotes launch</text>
  <text x="219" y="1917" class="label">Current view</text>
  <text x="219" y="1968" class="body">Share flow, AI Inbox, and Topics are converging</text>
  <text x="219" y="2019" class="body">into a clearer “capture to outcome” story.</text>
  <text x="219" y="2090" class="label">Next move</text>
  <text x="219" y="2141" class="body">Ship the landing page and connect the product</text>
  <text x="219" y="2192" class="body">message to the current app flow.</text>

  <rect x="147" y="2438" width="1026" height="156" rx="78" fill="url(#bar)"/>
  <rect x="183" y="2470" width="198" height="92" rx="34" fill="#F0ECE3"/>
  <text x="238" y="2528" class="chip" fill="#16201C">Chat</text>
  <rect x="399" y="2470" width="198" height="92" rx="34" fill="#F0ECE3"/>
  <text x="451" y="2528" class="chip" fill="#16201C">Photo</text>
  <rect x="615" y="2470" width="198" height="92" rx="34" fill="#F0ECE3"/>
  <text x="656" y="2528" class="chip" fill="#16201C">Record</text>
  <rect x="831" y="2470" width="296" height="92" rx="34" fill="#16201C"/>
  <text x="928" y="2528" class="chip" fill="#F8F4EB">Note</text>
</svg>
